<svg width="256" height="256" viewBox="0 0 256 256" fill="none" xmlns="http://www.w3.org/2000/svg">
<rect width="256" height="256" rx="32" fill="#16A34A"/>
<path d="M65.5202 124.188H53.077C52.8497 122.578 52.3857 121.148 51.6849 119.898C50.9842 118.629 50.0846 117.549 48.9861 116.659C47.8876 115.769 46.6187 115.087 45.1793 114.614C43.7588 114.14 42.2152 113.903 40.5486 113.903C37.5372 113.903 34.9141 114.652 32.6793 116.148C30.4444 117.625 28.7115 119.784 27.4804 122.625C26.2493 125.447 25.6338 128.875 25.6338 132.909C25.6338 137.057 26.2493 140.542 27.4804 143.364C28.7304 146.186 30.4728 148.316 32.7077 149.756C34.9425 151.195 37.5278 151.915 40.4634 151.915C42.1111 151.915 43.6357 151.697 45.0372 151.261C46.4577 150.826 47.7171 150.191 48.8156 149.358C49.9141 148.506 50.8232 147.473 51.5429 146.261C52.2815 145.049 52.7929 143.667 53.077 142.114L65.5202 142.17C65.1982 144.841 64.3933 147.417 63.1054 149.898C61.8365 152.36 60.1224 154.566 57.9634 156.517C55.8232 158.449 53.2664 159.983 50.2929 161.119C47.3384 162.237 43.9956 162.795 40.2645 162.795C35.0751 162.795 30.4349 161.621 26.344 159.273C22.2721 156.924 19.0524 153.525 16.6849 149.074C14.3365 144.623 13.1622 139.235 13.1622 132.909C13.1622 126.564 14.3554 121.167 16.7418 116.716C19.1281 112.265 22.3668 108.875 26.4577 106.545C30.5486 104.197 35.1509 103.023 40.2645 103.023C43.6357 103.023 46.7607 103.496 49.6395 104.443C52.5372 105.39 55.1035 106.773 57.3384 108.591C59.5732 110.39 61.3914 112.597 62.7929 115.21C64.2134 117.824 65.1224 120.816 65.5202 124.188ZM87.0298 162.852C82.617 162.852 78.8007 161.915 75.581 160.04C72.3802 158.146 69.9086 155.513 68.1662 152.142C66.4238 148.752 65.5526 144.822 65.5526 140.352C65.5526 135.845 66.4238 131.905 68.1662 128.534C69.9086 125.144 72.3802 122.511 75.581 120.636C78.8007 118.742 82.617 117.795 87.0298 117.795C91.4427 117.795 95.2495 118.742 98.4503 120.636C101.67 122.511 104.151 125.144 105.893 128.534C107.636 131.905 108.507 135.845 108.507 140.352C108.507 144.822 107.636 148.752 105.893 152.142C104.151 155.513 101.67 158.146 98.4503 160.04C95.2495 161.915 91.4427 162.852 87.0298 162.852ZM87.0867 153.477C89.0942 153.477 90.7704 152.909 92.1151 151.773C93.4598 150.617 94.473 149.045 95.1548 147.057C95.8556 145.068 96.206 142.805 96.206 140.267C96.206 137.729 95.8556 135.466 95.1548 133.477C94.473 131.489 93.4598 129.917 92.1151 128.761C90.7704 127.606 89.0942 127.028 87.0867 127.028C85.0601 127.028 83.3556 127.606 81.973 128.761C80.6094 129.917 79.5772 131.489 78.8764 133.477C78.1946 135.466 77.8537 137.729 77.8537 140.267C77.8537 142.805 78.1946 145.068 78.8764 147.057C79.5772 149.045 80.6094 150.617 81.973 151.773C83.3556 152.909 85.0601 153.477 87.0867 153.477ZM121.679 103.818V162H109.576V103.818H121.679ZM136.676 103.818V162H124.573V103.818H136.676ZM159.457 162.852C154.968 162.852 151.104 161.943 147.866 160.125C144.646 158.288 142.165 155.693 140.422 152.341C138.68 148.97 137.809 144.983 137.809 140.381C137.809 135.892 138.68 131.953 140.422 128.562C142.165 125.172 144.618 122.53 147.78 120.636C150.962 118.742 154.693 117.795 158.974 117.795C161.852 117.795 164.532 118.259 167.013 119.188C169.513 120.097 171.691 121.47 173.547 123.307C175.422 125.144 176.881 127.455 177.922 130.239C178.964 133.004 179.485 136.242 179.485 139.955V143.278H142.638V135.778H168.093C168.093 134.036 167.714 132.492 166.957 131.148C166.199 129.803 165.148 128.752 163.803 127.994C162.477 127.218 160.934 126.83 159.172 126.83C157.335 126.83 155.707 127.256 154.286 128.108C152.885 128.941 151.786 130.068 150.991 131.489C150.195 132.89 149.788 134.453 149.769 136.176V143.307C149.769 145.466 150.167 147.331 150.962 148.903C151.777 150.475 152.922 151.688 154.4 152.54C155.877 153.392 157.629 153.818 159.655 153.818C161 153.818 162.231 153.629 163.349 153.25C164.466 152.871 165.422 152.303 166.218 151.545C167.013 150.788 167.619 149.86 168.036 148.761L179.229 149.5C178.661 152.189 177.496 154.538 175.735 156.545C173.993 158.534 171.739 160.087 168.974 161.205C166.227 162.303 163.055 162.852 159.457 162.852ZM200.299 162.852C195.829 162.852 191.984 161.905 188.764 160.011C185.564 158.098 183.102 155.447 181.378 152.057C179.674 148.667 178.821 144.765 178.821 140.352C178.821 135.883 179.683 131.962 181.407 128.591C183.149 125.201 185.621 122.559 188.821 120.665C192.022 118.752 195.829 117.795 200.242 117.795C204.049 117.795 207.382 118.487 210.242 119.869C213.102 121.252 215.365 123.193 217.032 125.693C218.698 128.193 219.617 131.129 219.787 134.5H208.367C208.045 132.322 207.193 130.57 205.81 129.244C204.446 127.9 202.657 127.227 200.441 127.227C198.566 127.227 196.927 127.739 195.526 128.761C194.143 129.765 193.064 131.233 192.287 133.165C191.511 135.097 191.122 137.436 191.122 140.182C191.122 142.966 191.501 145.333 192.259 147.284C193.035 149.235 194.124 150.722 195.526 151.744C196.927 152.767 198.566 153.278 200.441 153.278C201.823 153.278 203.064 152.994 204.162 152.426C205.28 151.858 206.198 151.034 206.918 149.955C207.657 148.856 208.139 147.54 208.367 146.006H219.787C219.598 149.339 218.689 152.275 217.06 154.812C215.45 157.331 213.225 159.301 210.384 160.722C207.543 162.142 204.181 162.852 200.299 162.852ZM243.946 118.364V127.455H217.668V118.364H243.946ZM223.634 107.909H235.736V148.591C235.736 149.708 235.906 150.58 236.247 151.205C236.588 151.811 237.062 152.237 237.668 152.483C238.293 152.729 239.012 152.852 239.827 152.852C240.395 152.852 240.963 152.805 241.531 152.71C242.099 152.597 242.535 152.511 242.838 152.455L244.741 161.46C244.135 161.65 243.283 161.867 242.185 162.114C241.086 162.379 239.751 162.54 238.179 162.597C235.262 162.71 232.705 162.322 230.509 161.432C228.33 160.542 226.635 159.159 225.423 157.284C224.211 155.409 223.615 153.042 223.634 150.182V107.909ZM205.739 227V183.364H217.841V227H205.739ZM211.818 177.739C210.019 177.739 208.476 177.142 207.188 175.949C205.919 174.737 205.284 173.288 205.284 171.602C205.284 169.936 205.919 168.506 207.188 167.312C208.476 166.1 210.019 165.494 211.818 165.494C213.618 165.494 215.152 166.1 216.421 167.312C217.709 168.506 218.353 169.936 218.353 171.602C218.353 173.288 217.709 174.737 216.421 175.949C215.152 177.142 213.618 177.739 211.818 177.739ZM243.946 183.364V192.455H217.668V183.364H243.946ZM223.634 172.909H235.736V213.591C235.736 214.708 235.906 215.58 236.247 216.205C236.588 216.811 237.062 217.237 237.668 217.483C238.293 217.729 239.012 217.852 239.827 217.852C240.395 217.852 240.963 217.805 241.531 217.71C242.099 217.597 242.535 217.511 242.838 217.455L244.741 226.46C244.135 226.65 243.283 226.867 242.185 227.114C241.086 227.379 239.751 227.54 238.179 227.597C235.262 227.71 232.705 227.322 230.509 226.432C228.33 225.542 226.635 224.159 225.423 222.284C224.211 220.409 223.615 218.042 223.634 215.182V172.909Z" fill="white"/>
</svg>
